# xmcd
#
# Track frame offsets: 
#        150
#        16523
#        39214
#        58255
#        86652
#        117271
#        132934
#        154413
#        177306
#        191387
#
# Disc length: 2743 seconds
#
# Revision: 0
# Processed by: cddbd v1.5.2PL0 Copyright (c) Steve Scherf et al.
# Submitted via: ExactAudioCopy v0.95b3
#
DISCID=7a0ab50a
DTITLE=Geordie  - Don't Be Fooled by The Name (1974)  FLAC
DYEAR=1900
DGENRE=
TTITLE0=Goin' Down
TTITLE1=House of the Rising Sun
TTITLE2=So What
TTITLE3=Mercenary Man
TTITLE4=Ten Feet Tall
TTITLE5=Got to Know
TTITLE6=Little Boy
TTITLE7=Look at Me
TTITLE8=Electric Lady
TTITLE9=Red Eyed Lady
EXTD=
EXTT0=
EXTT1=
EXTT2=
EXTT3=
EXTT4=
EXTT5=
EXTT6=
EXTT7=
EXTT8=
EXTT9=
PLAYORDER=
